<svg width="500" height="373" viewBox="0 0 500 373" fill="none" xmlns="http://www.w3.org/2000/svg">
<g clip-path="url(#clip0_412_3639)">
<path d="M500 327.398H0V327.648H500V327.398Z" fill="#EBEBEB"/>
<path d="M449.902 343.494H428.223V343.744H449.902V343.494Z" fill="#EBEBEB"/>
<path d="M344.668 338.306H310.559V338.556H344.668V338.306Z" fill="#EBEBEB"/>
<path d="M441.111 334.208H396.586V334.458H441.111V334.208Z" fill="#EBEBEB"/>
<path d="M173.015 339.25H161.877V339.5H173.015V339.25Z" fill="#EBEBEB"/>
<path d="M152.975 339.25H114.586V339.5H152.975V339.25Z" fill="#EBEBEB"/>
<path d="M94.0016 335.028H66.3066V335.278H94.0016V335.028Z" fill="#EBEBEB"/>
<path d="M237.014 282.8H43.915C40.768 282.8 38.207 280.239 38.207 277.092V5.6599C38.207 2.5129 40.768 -0.0480957 43.915 -0.0480957H237.014C240.16 -0.0480957 242.721 2.5129 242.721 5.6599V277.092C242.721 280.239 240.16 282.8 237.014 282.8ZM43.915 0.202904C40.905 0.202904 38.457 2.6509 38.457 5.6609V277.093C38.457 280.103 40.905 282.551 43.915 282.551H237.014C240.023 282.551 242.471 280.103 242.471 277.093V5.6599C242.471 2.6509 240.023 0.201904 237.014 0.201904L43.915 0.202904Z" fill="#EBEBEB"/>
<path d="M453.311 282.8H260.213C257.066 282.8 254.506 280.239 254.506 277.092V5.6599C254.506 2.5129 257.067 -0.0480957 260.213 -0.0480957H453.311C456.459 -0.0480957 459.019 2.5129 459.019 5.6599V277.092C459.02 280.239 456.459 282.8 453.311 282.8ZM260.213 0.202904C257.204 0.202904 254.756 2.6509 254.756 5.6609V277.093C254.756 280.103 257.204 282.551 260.213 282.551H453.311C456.321 282.551 458.769 280.103 458.769 277.093V5.6599C458.769 2.6509 456.321 0.201904 453.311 0.201904L260.213 0.202904Z" fill="#EBEBEB"/>
<path d="M216.071 145.878L216.521 132.737L208.453 130.101C208.121 125.611 207.37 121.177 206.302 116.905L213.14 111.863L208.495 99.5199L200.037 100.201C198.021 96.2099 195.652 92.4128 192.997 88.8508L197.378 81.5378L188.37 71.9268L180.808 75.7988C177.402 72.9038 173.812 70.2828 169.969 67.9648L171.194 59.5708L159.196 54.1258L153.699 60.5678C149.511 59.2088 145.172 58.1928 140.683 57.5188L138.639 49.2908L125.463 48.8398L122.861 56.9088C118.336 57.2738 113.937 57.9908 109.666 59.0598L104.588 52.2548L92.2464 56.8658L92.9284 65.3248C88.9364 67.3748 85.1404 69.7428 81.5784 72.3988L74.3004 68.0188L64.6544 76.9908L68.5254 84.5869C65.6324 87.9589 63.0094 91.5848 60.7244 95.4288L52.3324 94.1698L46.8534 106.166L53.3294 111.664C51.9714 115.853 50.9184 120.226 50.2804 124.682L42.0164 126.758L41.5664 139.899L49.6684 142.538C49.9994 147.061 50.7514 151.462 51.8204 155.732L44.9834 160.774L49.6284 173.118L58.0864 172.435C60.1024 176.426 62.4714 180.223 65.1264 183.785L60.7444 191.098L69.7534 200.71L77.3144 196.837C80.6864 199.731 84.3114 202.355 88.1544 204.673L86.8944 213.064L98.8924 218.509L104.424 212.068C108.612 213.427 112.951 214.443 117.441 215.117L119.485 223.345L132.661 223.796L135.264 215.727C139.788 215.362 144.187 214.645 148.458 213.576L153.501 220.379L165.843 215.768L165.195 207.312C169.188 205.262 172.949 202.891 176.545 200.236L183.824 204.618L193.469 195.645L189.599 188.049C192.492 184.677 195.115 181.051 197.4 177.207L205.792 178.467L211.271 166.47L204.794 160.972C206.153 156.784 207.204 152.446 207.843 147.956L216.071 145.878ZM127.275 188.449C98.4974 187.463 75.9624 163.329 76.9484 134.55C77.9354 105.737 102.069 83.2038 130.847 84.1898C159.625 85.1758 182.16 109.308 181.173 138.121C180.187 166.9 156.053 189.435 127.275 188.449Z" fill="#EBEBEB"/>
<path d="M440.957 102.423L444.271 99.3279L442.947 96.7179C443.961 95.5419 444.859 94.2779 445.64 92.9759L448.537 93.4139L450.414 89.2719L448.185 87.3759C448.667 85.9109 449.015 84.4079 449.236 82.8919L452.088 82.1769L452.235 77.6369L449.447 76.7369C449.322 75.2009 449.086 73.6859 448.714 72.1839L451.06 70.4359L449.462 66.1829L446.551 66.4129C445.861 65.0599 445.051 63.7539 444.121 62.4959L445.629 59.9909L442.526 56.6679L439.923 57.9999C438.73 56.9849 437.483 56.0879 436.181 55.3069L436.602 52.4089L432.468 50.5239L430.572 52.7529C429.099 52.2789 427.596 51.9309 426.079 51.7099L425.372 48.8669L420.832 48.7029L419.924 51.4989C418.396 51.6159 416.873 51.8599 415.378 52.2409L413.639 49.8879L409.378 51.4769L409.616 54.3969C408.263 55.0869 406.94 55.8969 405.698 56.8279L403.177 55.3189L399.863 58.4139L401.195 61.0329C400.173 62.2169 399.283 63.4729 398.502 64.7749L395.605 64.3369L393.727 68.4799L395.956 70.3759C395.474 71.8409 395.126 73.3439 394.905 74.8599L392.053 75.5749L391.906 80.1159L394.694 81.0149C394.811 82.5429 395.055 84.0669 395.426 85.5689L393.073 87.3079L394.671 91.5609L397.591 91.3389C398.281 92.6919 399.091 93.9969 400.022 95.2569L398.514 97.7619L401.617 101.085L404.219 99.7519C405.411 100.766 406.659 101.664 407.961 102.445L407.532 105.334L411.666 107.219L413.57 104.999C415.044 105.473 416.539 105.812 418.063 106.041L418.77 108.884L423.31 109.048L424.218 106.252C425.746 106.135 427.269 105.891 428.764 105.51L430.503 107.864L434.765 106.275L434.526 103.355C435.878 102.665 437.193 101.864 438.444 100.925L440.957 102.423ZM417.341 83.2919C414.903 80.6809 415.043 76.5859 417.654 74.1479C420.268 71.7069 424.363 71.8469 426.801 74.4589C429.239 77.0699 429.099 81.1649 426.485 83.6059C423.874 86.0439 419.779 85.9029 417.341 83.2919Z" fill="#EBEBEB"/>
<path d="M319.989 237.336L309.648 230.194C309.645 230.186 309.645 230.177 309.642 230.169C308.619 226.412 307.208 222.796 305.483 219.397L308.132 208.999L293.132 192.934L282.573 194.867C279.303 192.916 275.794 191.262 272.119 189.985C272.111 189.983 272.101 189.981 272.093 189.977L265.673 179.167L243.708 178.414L236.566 188.755C236.553 188.758 236.539 188.762 236.525 188.765C232.772 189.788 229.159 191.196 225.765 192.919L215.372 190.27L199.308 205.271L201.237 215.809C201.235 215.813 201.233 215.814 201.231 215.818C199.239 219.125 197.623 222.635 196.346 226.312L185.538 232.729L184.785 254.695L195.135 261.843C196.157 265.626 197.524 269.234 199.282 272.661C199.283 272.663 199.283 272.663 199.284 272.665L196.642 283.031L211.642 299.094L222.135 297.174C225.447 299.132 228.961 300.788 232.681 302.067C232.684 302.069 232.686 302.069 232.69 302.069L239.099 312.863L261.064 313.616L268.201 303.282C271.998 302.261 275.616 300.851 279.052 299.124C279.052 299.124 279.054 299.124 279.055 299.122L289.401 301.758L305.465 286.759L303.536 276.219C305.528 272.912 307.144 269.4 308.421 265.723L308.422 265.721L319.234 259.3L319.989 237.336ZM251.537 270.726C237.883 270.258 227.217 258.795 227.683 245.18C228.151 231.526 239.575 220.859 253.229 221.326C266.883 221.794 277.55 233.218 277.083 246.872C276.617 260.487 265.191 271.194 251.537 270.726Z" fill="#EBEBEB"/>
<path d="M343.548 174.954C343.524 174.954 343.5 174.954 343.476 174.953L326.159 174.36C325.44 174.336 324.783 173.946 324.416 173.328L319.753 165.476C317.274 164.577 314.831 163.443 312.47 162.098L304.963 163.471C304.255 163.605 303.531 163.362 303.04 162.835L291.214 150.172C290.723 149.646 290.534 148.906 290.711 148.209L292.599 140.799C291.452 138.452 290.492 135.945 289.74 133.329L282.209 128.128C281.617 127.72 281.274 127.037 281.298 126.319L281.891 109.002C281.915 108.283 282.305 107.626 282.923 107.259L290.789 102.588C291.722 100.034 292.853 97.6029 294.159 95.3399L292.78 87.8069C292.651 87.0999 292.89 86.3739 293.416 85.8839L306.081 74.0569C306.607 73.5649 307.347 73.3769 308.044 73.5539L315.479 75.4489C317.884 74.2789 320.383 73.3149 322.928 72.5779L328.125 65.0529C328.533 64.4609 329.204 64.0949 329.935 64.1429L347.252 64.7369C347.971 64.7609 348.628 65.1499 348.995 65.7689L353.667 73.6349C356.149 74.5439 358.573 75.6749 360.894 77.0069L368.448 75.6229C369.157 75.4939 369.881 75.7329 370.372 76.2589L382.198 88.9249C382.689 89.4509 382.878 90.1909 382.701 90.8879L380.805 98.3259C381.976 100.732 382.939 103.23 383.677 105.772L391.202 110.968C391.794 111.376 392.137 112.059 392.113 112.778L391.52 130.096C391.496 130.815 391.106 131.472 390.488 131.839L382.619 136.512C381.686 139.065 380.557 141.495 379.253 143.755L380.632 151.291C380.761 151.998 380.522 152.724 379.996 153.214L367.331 165.038C366.806 165.53 366.067 165.72 365.369 165.541L357.968 163.655C355.529 164.833 353.016 165.796 350.48 166.525L345.288 174.044C344.891 174.614 344.241 174.954 343.548 174.954ZM327.457 170.179L342.466 170.694L347.437 163.496C347.721 163.085 348.143 162.787 348.626 162.657C351.391 161.914 354.134 160.862 356.781 159.531C356.786 159.529 356.79 159.527 356.795 159.524C357.236 159.307 357.75 159.24 358.253 159.371L365.291 161.164L376.268 150.915L374.955 143.741C374.862 143.235 374.958 142.713 375.223 142.271C376.671 139.868 377.899 137.232 378.873 134.437C379.033 133.941 379.372 133.524 379.814 133.264L387.337 128.796L387.851 113.786L380.648 108.811C380.271 108.551 379.989 108.175 379.844 107.742C379.826 107.688 379.81 107.631 379.796 107.573C379.043 104.815 377.995 102.105 376.682 99.5179C376.45 99.0609 376.393 98.5359 376.518 98.0399L378.322 90.9619L368.072 79.9829L360.883 81.2989C360.379 81.3919 359.86 81.2969 359.421 81.0349C356.921 79.5429 354.281 78.3099 351.575 77.3689C351.422 77.3159 351.267 77.2449 351.134 77.1639C350.842 76.9839 350.599 76.7369 350.425 76.4429L345.953 68.9139L330.944 68.3989L325.969 75.6029C325.673 76.0319 325.23 76.3339 324.726 76.4549C321.949 77.2159 319.248 78.2599 316.672 79.5669C316.215 79.7989 315.689 79.8569 315.195 79.7299L308.12 77.9259L297.143 88.1769L298.456 95.3499C298.539 95.7999 298.472 96.2649 298.268 96.6739C298.239 96.7319 298.207 96.7879 298.173 96.8439C296.722 99.2559 295.492 101.9 294.519 104.703C294.355 105.173 294.031 105.571 293.603 105.825L286.075 110.296L285.561 125.305L292.771 130.285C293.182 130.568 293.479 130.989 293.61 131.471C294.387 134.347 295.433 137.078 296.72 139.588C296.794 139.732 296.852 139.884 296.891 140.042C296.976 140.381 296.975 140.736 296.889 141.075L295.091 148.129L305.341 159.105L312.479 157.799C312.98 157.708 313.496 157.801 313.933 158.059C316.478 159.564 319.131 160.796 321.821 161.724C322.307 161.878 322.728 162.207 322.995 162.658L327.457 170.179ZM336.728 151.214C336.358 151.214 335.989 151.207 335.617 151.194C318.171 150.596 304.464 135.917 305.062 118.471C305.66 101.026 320.363 87.3229 337.785 87.9149C355.231 88.5129 368.938 103.192 368.34 120.639C368.051 129.079 364.49 136.908 358.314 142.681C352.403 148.207 344.774 151.214 336.728 151.214ZM336.69 92.1199C321.992 92.1199 309.79 103.815 309.283 118.616C308.765 133.734 320.643 146.455 335.762 146.973C343.088 147.218 350.073 144.605 355.431 139.596C360.784 134.592 363.87 127.808 364.12 120.494C364.638 105.376 352.759 92.6539 337.641 92.1359C337.323 92.1259 337.005 92.1199 336.69 92.1199Z" fill="#EBEBEB"/>
<path d="M383.438 50.3228L376.264 48.3968L374.338 41.2238L377.147 38.4148L380.11 44.5508L386.246 47.5148L383.438 50.3228Z" fill="#E0E0E0"/>
<path d="M383.882 45.5208C385.189 44.2138 385.189 42.0838 383.882 40.7768C382.575 39.4698 380.455 39.4798 379.148 40.7868L382.716 35.4338L387.502 37.8528L388.551 42.8818L383.882 45.5208Z" fill="#E0E0E0"/>
<path d="M376.58 38.9809L381.837 33.7239L389.01 35.6499L390.937 42.8239L385.68 48.0809L378.506 46.1539L376.58 38.9809ZM386.125 43.2789C387.432 41.9719 387.432 39.8419 386.125 38.5349C384.818 37.2279 382.698 37.2379 381.391 38.5449C380.084 39.8519 380.084 41.9629 381.391 43.2689C382.698 44.5759 384.818 44.5859 386.125 43.2789Z" fill="#F0F0F0"/>
<path d="M90.2218 241.708L94.0708 240.674L95.1048 236.825L93.5978 235.318L92.0079 238.611L88.7148 240.201L90.2218 241.708Z" fill="#E0E0E0"/>
<path d="M89.9826 239.131C89.2816 238.43 89.2816 237.287 89.9826 236.585C90.6836 235.884 91.8216 235.889 92.5226 236.59L90.6076 233.717L88.0396 235.015L87.4766 237.713L89.9826 239.131Z" fill="#E0E0E0"/>
<path d="M93.9013 235.622L91.0803 232.801L87.2313 233.835L86.1973 237.685L89.0183 240.506L92.8673 239.472L93.9013 235.622ZM88.7783 237.928C88.0773 237.227 88.0773 236.084 88.7783 235.382C89.4793 234.681 90.6173 234.686 91.3183 235.387C92.0193 236.088 92.0193 237.221 91.3183 237.922C90.6183 238.624 89.4803 238.629 88.7783 237.928Z" fill="#F0F0F0"/>
<path d="M76.3623 30.6619L79.5573 33.8569C80.3893 34.6889 81.7503 34.6889 82.5823 33.8569C83.4143 33.0249 83.4143 31.6639 82.5823 30.8319L79.3873 27.6369C78.5553 26.8049 77.1943 26.8049 76.3623 27.6369C75.5303 28.4689 75.5303 29.8309 76.3623 30.6619Z" fill="#F0F0F0"/>
<path d="M74.111 22.705C76.573 21.821 79.242 22.977 80.072 25.288C80.902 27.599 79.579 30.189 77.117 31.074C74.655 31.958 71.986 30.802 71.156 28.491C70.326 26.18 71.649 23.59 74.111 22.705Z" fill="#E0E0E0"/>
<path d="M70.6287 27.9578L71.0918 29.2471L80.5988 25.8326L80.1357 24.5433L70.6287 27.9578Z" fill="#F0F0F0"/>
<path d="M250 372.561C357.082 372.561 443.889 367.492 443.889 361.238C443.889 354.985 357.082 349.915 250 349.915C142.918 349.915 56.1113 354.985 56.1113 361.238C56.1113 367.492 142.918 372.561 250 372.561Z" fill="#F5F5F5"/>
<path d="M86.7162 65.6459C85.7152 61.2429 86.1622 57.5359 88.0582 54.5229C89.9542 51.5119 93.0922 49.5089 97.4712 48.5129C101.961 47.4919 105.694 47.9109 108.671 49.7699C111.648 51.6279 113.63 54.7279 114.617 59.0709C115.334 62.2239 115.391 64.9299 114.789 67.1889C114.186 69.4489 113.01 71.3679 111.26 72.9459C109.509 74.5249 107.137 75.6529 104.144 76.3339C101.102 77.0259 98.4742 77.1139 96.2602 76.5989C94.0462 76.0829 92.0812 74.9169 90.3652 73.0999C88.6492 71.2839 87.4322 68.7999 86.7162 65.6459ZM95.0602 63.7889C95.6792 66.5129 96.6302 68.3539 97.9132 69.3129C99.1952 70.2739 100.707 70.5539 102.45 70.1579C104.241 69.7519 105.495 68.8539 106.211 67.4659C106.927 66.0779 106.943 63.8739 106.256 60.8569C105.679 58.3179 104.745 56.5789 103.454 55.6389C102.163 54.7009 100.641 54.4309 98.8872 54.8299C97.2062 55.2119 95.9922 56.1139 95.2442 57.5349C94.4962 58.9569 94.4352 61.0409 95.0602 63.7889Z" fill="#14213D"/>
<path d="M118.593 62.3469C117.915 59.3669 118.363 56.6809 119.936 54.2909C121.508 51.9009 124.006 50.3169 127.429 49.5399C131.342 48.6499 134.556 49.1119 137.072 50.9279C139.094 52.3909 140.41 54.4589 141.018 57.1329C141.701 60.1399 141.265 62.8279 139.707 65.2009C138.15 67.5739 135.611 69.1609 132.09 69.9609C128.95 70.6749 126.229 70.4559 123.928 69.3009C121.099 67.8679 119.321 65.5499 118.593 62.3469ZM126.097 60.6229C126.493 62.3639 127.138 63.5719 128.034 64.2469C128.929 64.9209 129.91 65.1359 130.977 64.8929C132.056 64.6469 132.849 64.0349 133.355 63.0549C133.861 62.0759 133.908 60.6779 133.496 58.8639C133.111 57.1709 132.475 55.9889 131.587 55.3199C130.699 54.6509 129.74 54.4329 128.71 54.6679C127.618 54.9159 126.812 55.5419 126.292 56.5439C125.771 57.5449 125.706 58.9049 126.097 60.6229Z" fill="#14213D"/>
<path d="M148.586 73.5659L142.453 46.5889L149.464 44.9939L150.121 47.8829C150.814 46.4489 151.516 45.4259 152.228 44.8119C153.189 43.9879 154.332 43.4239 155.657 43.1239C158.27 42.5289 160.518 43.0699 162.402 44.7439C164.286 46.4189 165.563 48.7279 166.232 51.6729C166.971 54.9239 166.756 57.5819 165.587 59.6479C164.418 61.7129 162.644 63.0169 160.264 63.5579C159.111 63.8199 158.015 63.8629 156.974 63.6859C155.934 63.5089 154.952 63.1209 154.028 62.5179L156.149 71.8469L148.586 73.5659ZM152.195 54.7089C152.546 56.2549 153.132 57.3279 153.952 57.9289C154.772 58.5299 155.679 58.7159 156.673 58.4909C157.544 58.2929 158.193 57.7679 158.618 56.9169C159.043 56.0649 159.061 54.7809 158.671 53.0629C158.311 51.4799 157.74 50.3879 156.958 49.7859C156.176 49.1819 155.343 48.9819 154.46 49.1819C153.504 49.3999 152.791 49.9559 152.323 50.8479C151.855 51.7419 151.812 53.0279 152.195 54.7089Z" fill="#14213D"/>
<path d="M169.435 55.299L176.71 52.909C177.217 53.722 177.791 54.257 178.429 54.513C179.067 54.767 179.847 54.79 180.767 54.581C181.772 54.352 182.503 53.961 182.958 53.406C183.315 52.99 183.439 52.544 183.33 52.065C183.208 51.526 182.831 51.173 182.2 51.008C181.748 50.892 180.616 50.879 178.805 50.968C176.101 51.107 174.2 51.097 173.099 50.942C171.999 50.785 170.998 50.327 170.096 49.565C169.194 48.804 168.609 47.834 168.342 46.658C168.05 45.371 168.172 44.178 168.708 43.076C169.245 41.974 170.117 41.044 171.325 40.286C172.533 39.528 174.241 38.898 176.449 38.396C178.78 37.866 180.541 37.654 181.732 37.756C182.923 37.86 183.975 38.201 184.887 38.78C185.8 39.36 186.646 40.231 187.426 41.396L180.482 43.71C180.156 43.125 179.745 42.735 179.249 42.539C178.57 42.279 177.814 42.244 176.98 42.435C176.133 42.627 175.551 42.917 175.233 43.305C174.915 43.693 174.804 44.102 174.902 44.531C175.01 45.009 175.338 45.314 175.884 45.447C176.43 45.582 177.548 45.558 179.236 45.381C181.79 45.098 183.732 45.068 185.061 45.295C186.39 45.521 187.482 46.027 188.338 46.812C189.193 47.597 189.748 48.547 190.002 49.663C190.258 50.791 190.167 51.965 189.729 53.185C189.29 54.406 188.41 55.498 187.087 56.463C185.765 57.426 183.84 58.196 181.313 58.772C177.743 59.584 175.084 59.651 173.338 58.978C171.592 58.304 170.291 57.078 169.435 55.299Z" fill="#14213D"/>
<path d="M193.85 30.566L202.058 30.52L202.094 36.823L200.58 49.494L195.504 49.522L193.885 36.869L193.85 30.566ZM194.251 51.454L201.912 51.411L201.951 58.185L194.29 58.228L194.251 51.454Z" fill="#14213D"/>
<path d="M128.679 116.581C128.619 116.581 128.558 116.57 128.498 116.547C123.997 114.804 121.304 113.101 119.906 111.055C118.89 111.259 117.753 111.124 116.674 110.611C115.626 110.113 114.617 109.242 113.893 107.989C113.218 108.51 112.384 108.652 111.468 108.364C110.452 108.045 109.395 107.189 108.516 105.953C107.957 106.357 107.384 106.418 106.964 106.383C103.991 106.141 99.9634 100.223 99.6744 93.9159C99.6614 93.6409 99.8754 93.4059 100.151 93.3949C100.421 93.3719 100.661 93.5949 100.673 93.8719C100.947 99.8569 104.782 105.203 107.046 105.387C107.413 105.423 107.72 105.308 107.978 105.108C106.62 102.725 105.915 99.3269 106.955 95.6959C107.815 92.6909 108.575 91.5159 109.487 91.7339C111.21 92.1629 110.984 98.7059 110.071 103.022C109.864 104.001 109.566 104.703 109.226 105.205C110.015 106.37 110.95 107.154 111.769 107.412C112.501 107.642 113.043 107.447 113.443 107.066C112.657 105.13 112.494 102.492 113.561 99.1269C114.965 94.6979 115.53 94.5779 115.868 94.5069C116.106 94.4559 116.344 94.5349 116.513 94.7269C117.437 95.7699 116.333 102.649 115.169 106.051C115.018 106.493 114.83 106.88 114.612 107.208C115.233 108.425 116.148 109.254 117.105 109.709C117.873 110.074 118.661 110.207 119.378 110.14C119.288 109.951 119.207 109.759 119.134 109.564C118.341 107.417 118.729 104.938 120.319 101.986C121.374 100.028 122.234 99.1149 123.026 99.1139C123.261 99.1139 123.702 99.2009 124.013 99.7759C124.885 101.385 124.254 106.695 122.53 109.33C122.124 109.951 121.563 110.422 120.912 110.728C122.252 112.49 124.796 114.042 128.861 115.618C129.118 115.718 129.246 116.007 129.147 116.264C129.069 116.46 128.879 116.581 128.679 116.581ZM123.025 100.111C123.022 100.111 122.46 100.115 121.198 102.458C119.752 105.143 119.383 107.353 120.071 109.215C120.155 109.443 120.255 109.665 120.371 109.885C120.905 109.656 121.362 109.284 121.692 108.781C123.092 106.64 123.763 102.243 123.242 100.524C123.135 100.172 123.026 100.111 123.025 100.111ZM115.853 95.8979C115.595 96.3829 115.161 97.3819 114.513 99.4269C113.655 102.135 113.65 104.311 114.128 105.975C114.161 105.891 114.192 105.807 114.221 105.724C115.397 102.286 115.97 97.5499 115.853 95.8979ZM109.267 92.7479C109.098 92.9029 108.612 93.5329 107.915 95.9689C106.996 99.1819 107.562 102.113 108.642 104.215C108.849 103.781 108.993 103.281 109.092 102.813C110.129 97.9019 109.827 93.4589 109.267 92.7479Z" fill="#14213D"/>
<path d="M166.699 168.997C165.174 168.997 163.57 168.649 162.138 167.808C161.9 167.667 161.82 167.362 161.96 167.123C162.099 166.884 162.406 166.807 162.644 166.944C166.211 169.039 170.822 167.577 171.771 166.051C171.881 165.872 171.982 165.645 171.918 165.38C170.507 165.529 168.771 165.155 166.787 163.914C164.242 162.323 164.046 161.85 164.062 161.472C164.072 161.248 164.199 161.053 164.403 160.949C165.399 160.444 169.908 162.523 171.788 163.759C172.034 163.921 172.242 164.096 172.41 164.281C173.241 164.079 173.885 163.649 174.313 163.136C174.607 162.783 174.803 162.399 174.9 162.014C174.834 162.024 174.767 162.032 174.7 162.038C173.101 162.199 171.497 161.513 169.789 159.934C168.615 158.849 168.159 158.101 168.311 157.508C168.359 157.319 168.517 156.983 169.03 156.855C170.413 156.511 173.827 157.966 175.223 159.497C175.537 159.841 175.751 160.246 175.865 160.681C177.17 160.068 178.55 158.693 180.184 156.41C180.345 156.185 180.657 156.134 180.882 156.295C181.107 156.455 181.158 156.768 180.998 156.992C179.109 159.632 177.534 161.128 175.952 161.738C175.89 162.442 175.599 163.158 175.083 163.778C174.576 164.385 173.837 164.907 172.902 165.189C173.002 165.639 172.912 166.115 172.622 166.581C171.777 167.938 169.359 168.997 166.699 168.997ZM165.811 162.061C166.147 162.309 166.629 162.637 167.317 163.068C168.674 163.917 169.883 164.308 170.917 164.39C169.26 163.363 167.093 162.454 165.811 162.061ZM169.301 157.813C169.357 157.969 169.579 158.38 170.467 159.201C171.953 160.575 173.305 161.186 174.598 161.045C174.704 161.034 174.811 161.019 174.918 160.997C174.847 160.693 174.702 160.412 174.484 160.172C173.077 158.629 169.984 157.652 169.301 157.813Z" fill="#14213D"/>
<path d="M179.942 167.625L164.36 170.455L150.213 93.2429L120.149 98.7039L71.1602 185.703L76.4202 214.411L139.257 202.997L143.559 226.478L173.623 221.017L169.321 197.537L184.903 194.706L179.942 167.625ZM101.094 181.948L127.053 136.381L134.297 175.917L101.094 181.948Z" fill="#DD7F11"/>
<path d="M305.431 87.992C304.849 82.658 303.784 77.919 302.234 73.774C300.685 69.629 298.354 65.566 295.244 61.585C292.134 57.604 287.899 54.148 282.54 51.219C277.18 48.291 270.106 46.252 261.317 45.107C243.025 42.724 228.766 45.972 218.535 54.847C208.303 63.724 201.572 80.728 198.337 105.858C197.021 116.079 196.695 125.527 197.36 134.203C198.023 142.878 199.615 149.856 202.138 155.136C205.589 162.555 210.473 168.48 216.787 172.908C223.1 177.337 231.749 180.268 242.737 181.699C262.334 184.252 276.856 180.491 286.306 170.412C295.754 160.335 302.023 143.3 305.111 119.311C306.49 108.608 306.596 98.169 305.431 87.992Z" fill="#DD7F11"/>
<path d="M251.768 171.433C249.363 171.351 246.804 171.134 244.161 170.789C235.007 169.597 227.924 167.28 223.108 163.901C218.356 160.569 214.761 156.185 212.116 150.495L212.067 150.392C210.144 146.369 208.888 140.639 208.332 133.364C207.727 125.476 208.036 116.695 209.25 107.262C212.819 79.541 220.191 67.975 225.747 63.155C232.225 57.535 240.968 54.995 252.477 55.389C254.835 55.47 257.332 55.681 259.898 56.015C267.284 56.977 273.128 58.611 277.268 60.872C281.277 63.063 284.41 65.582 286.578 68.357C288.982 71.433 290.783 74.552 291.932 77.626C293.155 80.896 294.018 84.785 294.498 89.184C295.563 98.493 295.462 108.137 294.205 117.906C291.432 139.445 286.076 154.579 278.285 162.887C272.506 169.052 263.833 171.848 251.771 171.434C251.769 171.433 251.768 171.433 251.768 171.433Z" fill="#14213D"/>
<path d="M271.337 88.287L271.467 84.499L269.142 83.739C269.046 82.445 268.83 81.167 268.522 79.935L270.493 78.482L269.154 74.924L266.716 75.12C266.135 73.97 265.452 72.875 264.687 71.848L265.95 69.74L263.353 66.97L261.173 68.086C260.191 67.252 259.156 66.496 258.048 65.828L258.401 63.408L254.943 61.838L253.359 63.695C252.152 63.303 250.901 63.01 249.607 62.816L249.018 60.444L245.22 60.314L244.47 62.64C243.165 62.745 241.898 62.952 240.667 63.26L239.203 61.299L235.645 62.628L235.842 65.066C234.691 65.657 233.597 66.339 232.57 67.105L230.472 65.843L227.692 68.429L228.808 70.618C227.974 71.59 227.218 72.635 226.559 73.743L224.14 73.38L222.561 76.838L224.428 78.423C224.036 79.631 223.733 80.891 223.549 82.175L221.167 82.773L221.037 86.561L223.372 87.322C223.467 88.626 223.684 89.894 223.992 91.125L222.021 92.578L223.36 96.136L225.798 95.939C226.379 97.089 227.062 98.184 227.827 99.211L226.564 101.319L229.161 104.09L231.34 102.974C232.312 103.808 233.357 104.564 234.464 105.233L234.101 107.652L237.559 109.222L239.154 107.365C240.361 107.757 241.612 108.05 242.906 108.244L243.495 110.616L247.293 110.746L248.043 108.42C249.347 108.315 250.615 108.108 251.846 107.8L253.3 109.761L256.858 108.432L256.671 105.994C257.822 105.403 258.906 104.72 259.943 103.954L262.041 105.217L264.821 102.63L263.705 100.441C264.539 99.469 265.295 98.424 265.953 97.316L268.372 97.679L269.951 94.221L268.084 92.636C268.476 91.429 268.779 90.178 268.963 88.884L271.337 88.287ZM245.742 100.558C237.447 100.274 230.951 93.317 231.235 85.022C231.52 76.717 238.476 70.222 246.771 70.506C255.066 70.79 261.562 77.746 261.277 86.051C260.994 94.346 254.037 100.842 245.742 100.558Z" fill="#DD7F11"/>
<path opacity="0.3" d="M287.123 157.865L287.398 155.312L285.863 154.686C285.858 153.808 285.782 152.939 285.636 152.092L287.036 151.203L286.325 148.733L284.663 148.746C284.328 147.939 283.933 147.164 283.467 146.435L284.415 145.075L282.81 143.077L281.279 143.715C280.668 143.109 280.008 142.548 279.288 142.044L279.66 140.418L277.409 139.183L276.233 140.371C275.426 140.027 274.592 139.776 273.756 139.584L273.473 137.948L270.92 137.662L270.294 139.197C269.416 139.202 268.559 139.29 267.7 139.436L266.812 138.024L264.341 138.747L264.354 140.409C263.558 140.745 262.784 141.14 262.043 141.606L260.683 140.646L258.686 142.251L259.324 143.782C258.729 144.394 258.157 145.053 257.652 145.773L256.037 145.413L254.802 147.664L255.979 148.828C255.647 149.648 255.385 150.47 255.192 151.317L253.556 151.588L253.281 154.141L254.815 154.779C254.809 155.645 254.896 156.514 255.043 157.362L253.632 158.25L254.355 160.721L256.017 160.719C256.353 161.515 256.747 162.289 257.214 163.019L256.255 164.379L257.86 166.388L259.404 165.739C260.015 166.345 260.674 166.906 261.395 167.411L261.023 169.037L263.274 170.273L264.449 169.096C265.257 169.428 266.091 169.679 266.927 169.871L267.21 171.507L269.763 171.793L270.389 170.258C271.255 170.253 272.124 170.166 272.983 170.02L273.871 171.431L276.33 170.708L276.329 169.046C277.125 168.71 277.899 168.316 278.64 167.85L279.988 168.809L281.997 167.205L281.347 165.673C281.953 165.062 282.514 164.402 283.03 163.683L284.644 164.042L285.879 161.791L284.702 160.627C285.034 159.808 285.285 158.985 285.477 158.149L287.123 157.865ZM274.25 156.874C273.064 159.033 270.345 159.83 268.186 158.644C266.027 157.458 265.242 154.74 266.428 152.581C267.614 150.422 270.32 149.637 272.48 150.822C274.639 152.008 275.435 154.715 274.25 156.874Z" fill="#DD7F11"/>
<path d="M301.29 114.649L298.309 112.59C298.308 112.588 298.308 112.585 298.307 112.583C298.012 111.5 297.605 110.458 297.108 109.478L297.872 106.481L293.548 101.85L290.505 102.407C289.563 101.844 288.551 101.368 287.492 101C287.49 100.999 287.487 100.999 287.484 100.998L285.634 97.882L279.303 97.665L277.244 100.646C277.24 100.647 277.236 100.648 277.232 100.649C276.15 100.944 275.109 101.35 274.13 101.846L271.134 101.082L266.504 105.406L267.06 108.444C267.059 108.445 267.059 108.446 267.058 108.447C266.484 109.4 266.018 110.412 265.65 111.472L262.535 113.322L262.318 119.653L265.301 121.713C265.595 122.803 265.99 123.843 266.496 124.831C266.496 124.832 266.496 124.832 266.496 124.832L265.735 127.82L270.058 132.45L273.083 131.897C274.037 132.461 275.05 132.939 276.123 133.307C276.124 133.308 276.125 133.308 276.126 133.308L277.973 136.419L284.304 136.636L286.361 133.657C287.455 133.363 288.498 132.956 289.489 132.458C289.489 132.458 289.49 132.458 289.49 132.457L292.472 133.217L297.102 128.894L296.546 125.856C297.12 124.903 297.586 123.89 297.954 122.831L301.07 120.979L301.29 114.649ZM281.559 124.274C277.623 124.139 274.549 120.835 274.683 116.911C274.818 112.975 278.111 109.901 282.046 110.035C285.982 110.17 289.056 113.463 288.922 117.398C288.788 121.322 285.494 124.409 281.559 124.274Z" fill="white"/>
<path d="M323.045 64.1241L323.566 62.8671C323.567 62.8671 323.568 62.8661 323.569 62.8661C323.943 62.6731 324.294 62.4411 324.615 62.1811L325.776 62.2251L327.136 60.2731L326.692 59.1991C326.824 58.8091 326.92 58.4001 326.971 57.9821C326.971 57.9811 326.971 57.9801 326.971 57.9791L327.969 57.0541L327.55 54.7121L326.293 54.1911C326.292 54.1901 326.292 54.1881 326.291 54.1871C326.098 53.8131 325.867 53.4631 325.607 53.1421L325.651 51.9821L323.699 50.6221L322.627 51.0651H322.626C322.231 50.9291 321.823 50.8381 321.405 50.7861L320.48 49.7881L318.138 50.2071L317.616 51.4651C317.239 51.6591 316.888 51.8861 316.565 52.1501L315.408 52.1061L314.049 54.0581L314.49 55.1251C314.358 55.5201 314.262 55.9291 314.212 56.3521L313.215 57.2761L313.634 59.6181L314.89 60.1391C315.084 60.5181 315.316 60.8691 315.577 61.1931L315.533 62.3481L317.485 63.7081L318.557 63.2641C318.952 63.4001 319.361 63.4911 319.779 63.5431L320.704 64.5421L323.045 64.1241ZM317.956 57.6371C317.696 56.1811 318.667 54.7921 320.118 54.5321C321.574 54.2721 322.962 55.2381 323.223 56.6941C323.484 58.1501 322.516 59.5381 321.061 59.7991C319.61 60.0591 318.217 59.0931 317.956 57.6371Z" fill="#DD7F11"/>
<path d="M295.608 57.4889L294.844 56.8439C296.172 55.2719 298.055 53.2799 300.852 51.8149L301.316 52.7019C298.334 54.2629 296.424 56.5239 295.608 57.4889Z" fill="#DD7F11"/>
<path d="M303.592 51.8019L303.197 50.8819C306.98 49.2619 310.932 48.6299 314.936 49.0019L314.843 49.9979C311.003 49.6319 307.219 50.2459 303.592 51.8019Z" fill="#DD7F11"/>
<path d="M301.705 58.7201L300.879 58.1571C302.933 55.1401 306.992 52.5131 310.75 51.7681L310.944 52.7481C307.422 53.4481 303.623 55.9031 301.705 58.7201Z" fill="#DD7F11"/>
<path d="M235.343 154.957C235.209 154.957 235.079 154.903 234.984 154.805L232.887 152.644C231.819 152.543 230.763 152.347 229.741 152.058L226.473 153.499C226.318 153.57 226.138 153.552 225.995 153.459L220.52 149.829C220.378 149.734 220.294 149.575 220.296 149.404L220.35 145.841C219.685 145.013 219.092 144.114 218.584 143.164L215.779 142.076C215.62 142.014 215.504 141.877 215.469 141.71L214.164 135.272C214.13 135.105 214.184 134.932 214.306 134.813L216.467 132.717C216.567 131.654 216.763 130.597 217.051 129.568L215.612 126.304C215.543 126.148 215.559 125.968 215.652 125.825L219.281 120.349C219.375 120.207 219.509 120.119 219.706 120.125L223.267 120.18C224.103 119.512 225.003 118.919 225.946 118.415L227.034 115.608C227.096 115.449 227.234 115.333 227.401 115.298L233.839 113.992C234.006 113.96 234.179 114.012 234.297 114.134L236.391 116.293C237.455 116.393 238.513 116.59 239.544 116.878L242.807 115.439C242.962 115.371 243.142 115.386 243.285 115.48L248.76 119.109C248.902 119.204 248.986 119.363 248.984 119.534L248.93 123.099C249.596 123.928 250.188 124.827 250.694 125.774L253.501 126.863C253.66 126.925 253.776 127.062 253.811 127.229L255.116 133.667C255.15 133.834 255.096 134.007 254.974 134.126L252.812 136.223C252.713 137.274 252.517 138.329 252.227 139.366L253.668 142.635C253.737 142.791 253.721 142.972 253.628 143.114L250 148.591C249.906 148.733 249.756 148.804 249.576 148.815L246.013 148.761C245.183 149.423 244.284 150.014 243.338 150.52L242.247 153.333C242.186 153.492 242.047 153.608 241.88 153.643L235.442 154.949C235.409 154.954 235.376 154.957 235.343 154.957ZM229.706 151.027C229.753 151.027 229.801 151.034 229.847 151.048C230.918 151.362 232.031 151.57 233.158 151.664C233.279 151.674 233.391 151.727 233.475 151.814L235.511 153.913L241.413 152.716L242.473 149.984C242.517 149.871 242.601 149.777 242.708 149.721C243.711 149.198 244.658 148.576 245.523 147.87C245.614 147.796 245.717 147.745 245.846 147.758L249.317 147.811L252.644 142.791L251.24 139.607C251.193 139.5 251.185 139.378 251.218 139.265C251.534 138.174 251.741 137.06 251.834 135.954C251.844 135.833 251.897 135.721 251.984 135.636L254.083 133.6L252.887 127.699L250.16 126.641C250.044 126.596 249.949 126.51 249.893 126.399C249.373 125.399 248.75 124.456 248.042 123.593C247.967 123.501 247.926 123.386 247.928 123.268L247.981 119.794L242.961 116.467L239.785 117.867C239.677 117.914 239.557 117.922 239.444 117.89C238.36 117.575 237.242 117.367 236.121 117.274C236 117.264 235.888 117.21 235.804 117.125L233.771 115.028L227.869 116.225L226.812 118.952C226.768 119.065 226.684 119.159 226.576 119.215C225.58 119.734 224.632 120.358 223.76 121.069C223.669 121.143 223.547 121.196 223.435 121.183L219.965 121.129L216.638 126.149L218.04 129.328C218.1 129.465 218.096 129.621 218.03 129.754C217.748 130.753 217.541 131.868 217.447 132.987C217.437 133.107 217.384 133.219 217.297 133.304L215.199 135.339L216.395 141.24L219.121 142.297C219.243 142.344 219.341 142.437 219.394 142.554C219.912 143.546 220.534 144.488 221.238 145.345C221.313 145.437 221.355 145.554 221.353 145.672L221.3 149.144L226.32 152.472L229.504 151.068C229.568 151.042 229.637 151.027 229.706 151.027ZM234.624 147.792C232.096 147.792 229.542 147.076 227.281 145.578C224.315 143.612 222.291 140.608 221.582 137.121C220.873 133.633 221.566 130.078 223.532 127.111H223.533C227.598 120.986 235.885 119.304 242.006 123.361C248.128 127.424 249.808 135.711 245.75 141.835C243.189 145.698 238.945 147.792 234.624 147.792ZM224.366 127.664C222.548 130.407 221.907 133.695 222.563 136.922C223.218 140.148 225.09 142.926 227.834 144.744C233.501 148.498 241.163 146.945 244.915 141.282C248.669 135.618 247.116 127.952 241.453 124.195C235.791 120.442 228.126 121.998 224.366 127.664Z" fill="white"/>
<path d="M425.826 176.65L410.131 174.532L420.511 96.7239L390.23 92.6379L316.777 160.264L312.918 189.193L376.21 197.735L373.054 221.397L403.335 225.483L406.491 201.821L422.186 203.939L425.826 176.65ZM346.408 165.932L385.166 130.604L379.851 170.445L346.408 165.932Z" fill="#DD7F11"/>
<path d="M394.133 224.741C394.103 224.741 394.073 224.738 394.043 224.733C393.772 224.683 393.591 224.423 393.641 224.151L416.967 96.221C417.016 95.951 417.279 95.781 417.548 95.819C417.82 95.869 418 96.13 417.95 96.401L394.624 224.331C394.58 224.572 394.37 224.741 394.133 224.741Z" fill="#14213D"/>
<path d="M414.83 98.3699C414.814 98.8219 414.435 99.1759 413.983 99.1609C413.531 99.1449 413.177 98.7659 413.192 98.3139C413.207 97.8619 413.587 97.5079 414.039 97.5229C414.492 97.5379 414.846 97.9169 414.83 98.3699Z" fill="#14213D"/>
<path d="M411.498 115.671C411.482 116.123 411.103 116.477 410.651 116.462C410.199 116.447 409.845 116.067 409.86 115.615C409.875 115.163 410.255 114.809 410.707 114.824C411.159 114.839 411.513 115.218 411.498 115.671Z" fill="#14213D"/>
<path d="M408.166 132.971C408.15 133.423 407.771 133.777 407.319 133.762C406.867 133.747 406.513 133.367 406.528 132.915C406.543 132.463 406.923 132.109 407.375 132.124C407.828 132.14 408.182 132.519 408.166 132.971Z" fill="#14213D"/>
<path d="M401.613 150.982C401.597 151.434 401.218 151.788 400.766 151.773C400.314 151.757 399.96 151.378 399.975 150.926C399.99 150.474 400.37 150.12 400.822 150.135C401.274 150.15 401.629 150.529 401.613 150.982Z" fill="#14213D"/>
<path d="M401.5 167.573C401.484 168.025 401.105 168.379 400.653 168.364C400.201 168.348 399.847 167.969 399.862 167.517C399.877 167.065 400.257 166.711 400.709 166.726C401.162 166.741 401.516 167.121 401.5 167.573Z" fill="#14213D"/>
<path d="M398.168 184.874C398.152 185.326 397.773 185.68 397.321 185.665C396.869 185.65 396.515 185.27 396.53 184.818C396.545 184.366 396.925 184.012 397.377 184.027C397.829 184.042 398.183 184.421 398.168 184.874Z" fill="#14213D"/>
<path d="M394.836 202.175C394.82 202.627 394.441 202.981 393.989 202.966C393.537 202.95 393.183 202.571 393.198 202.119C393.214 201.667 393.593 201.313 394.045 201.328C394.498 201.343 394.852 201.722 394.836 202.175Z" fill="#14213D"/>
<path d="M391.504 219.475C391.488 219.927 391.109 220.281 390.657 220.266C390.205 220.251 389.851 219.871 389.866 219.419C389.881 218.967 390.261 218.613 390.713 218.628C391.165 218.643 391.519 219.023 391.504 219.475Z" fill="#14213D"/>
<path d="M400.794 151.454C400.564 151.454 400.356 151.294 400.306 151.058C400.248 150.788 400.42 150.523 400.69 150.464L403.174 149.931C403.448 149.877 403.71 150.044 403.768 150.316C403.826 150.586 403.654 150.851 403.384 150.91L400.9 151.443C400.864 151.45 400.829 151.454 400.794 151.454Z" fill="#14213D"/>
<path d="M409.085 142.241C409.085 142.241 406.847 148.07 406.094 151.602C405.341 155.134 405.295 163.026 405.295 163.026" fill="#14213D"/>
<path d="M405.295 163.526H405.292C405.016 163.524 404.793 163.299 404.795 163.023C404.797 162.699 404.849 155.039 405.605 151.497C406.358 147.968 408.526 142.302 408.618 142.061C408.717 141.804 409.005 141.676 409.264 141.774C409.522 141.873 409.651 142.163 409.552 142.42C409.53 142.479 407.32 148.254 406.583 151.706C405.849 155.148 405.796 162.951 405.795 163.029C405.793 163.305 405.57 163.526 405.295 163.526Z" fill="#14213D"/>
<path d="M222.451 249.841C223.84 227.438 221.285 186.714 263.395 192.105C308.53 197.883 295.617 250.661 295.617 250.661L222.451 249.841Z" fill="#14213D"/>
<path d="M251.514 236.375C261.662 236.375 269.889 228.148 269.889 218C269.889 207.852 261.662 199.625 251.514 199.625C241.365 199.625 233.139 207.852 233.139 218C233.139 228.148 241.365 236.375 251.514 236.375Z" fill="white"/>
<path d="M253.925 199.654C245.221 198.168 235.915 204.584 234.998 211.084L269.505 214.257C268.289 206.847 260.831 200.833 253.925 199.654Z" fill="#14213D"/>
<path d="M265.576 217.543C265.329 222.347 262.711 226.117 259.728 225.964C256.745 225.811 254.527 221.792 254.773 216.988C255.02 212.184 257.638 208.414 260.621 208.567C263.604 208.72 265.823 212.739 265.576 217.543Z" fill="#14213D"/>
<path d="M251.513 237.375C240.829 237.375 232.137 228.684 232.137 218C232.137 207.316 240.829 198.625 251.513 198.625C262.197 198.625 270.888 207.316 270.888 218C270.888 228.684 262.196 237.375 251.513 237.375ZM251.513 200.625C241.932 200.625 234.137 208.419 234.137 218C234.137 227.581 241.931 235.375 251.513 235.375C261.094 235.375 268.888 227.581 268.888 218C268.888 208.419 261.093 200.625 251.513 200.625Z" fill="#DD7F11"/>
<path opacity="0.3" d="M290.484 249.277C290.445 249.277 290.406 249.272 290.366 249.263C290.098 249.198 289.932 248.928 289.997 248.659C290.03 248.524 293.216 234.965 289.907 221.256C289.842 220.988 290.007 220.718 290.276 220.652C290.541 220.592 290.814 220.752 290.879 221.021C294.247 234.971 291.003 248.755 290.969 248.893C290.914 249.124 290.71 249.277 290.484 249.277Z" fill="white"/>
<path opacity="0.3" d="M287.697 213.759C287.507 213.759 287.326 213.651 287.242 213.467C285.956 210.661 284.361 208.085 282.5 205.81C282.325 205.596 282.357 205.282 282.571 205.107C282.784 204.931 283.099 204.962 283.275 205.177C285.189 207.518 286.83 210.167 288.151 213.051C288.266 213.302 288.156 213.599 287.905 213.713C287.837 213.744 287.767 213.759 287.697 213.759Z" fill="white"/>
<path d="M128.735 354.918C128.611 354.918 128.487 354.917 128.363 354.913C125.603 354.837 123.427 352.538 123.502 349.777C123.577 347.017 125.851 344.882 128.637 344.917C128.668 344.918 128.7 344.918 128.733 344.918C131.622 344.918 138.572 341.408 153.111 318.488C153.892 317.258 155.172 316.428 156.614 316.218C158.059 316.013 159.519 316.441 160.619 317.398C178.56 333.041 197.573 342.778 197.763 342.875C200.224 344.125 201.207 347.135 199.957 349.596C198.707 352.058 195.699 353.043 193.238 351.792C192.483 351.409 175.864 342.912 158.44 328.646C146.254 346.965 137.211 354.918 128.735 354.918Z" fill="#14213D"/>
<path d="M159.67 316.5C159.528 316.5 159.386 316.49 159.242 316.47C157.602 316.236 156.462 314.716 156.697 313.075C157.408 308.098 156.527 289.449 150.222 274.949C149.647 273.628 150.093 272.085 151.284 271.273C164.982 261.938 194.16 260.822 195.396 260.779C197.043 260.743 198.44 262.017 198.498 263.673C198.556 265.328 197.26 266.718 195.605 266.775C195.335 266.785 169.825 267.763 156.717 274.977C162.301 289.415 163.567 307.414 162.636 313.924C162.422 315.421 161.139 316.5 159.67 316.5Z" fill="#14213D"/>
<path d="M164.709 312.616C162.714 307.91 153.721 308.445 148.441 312.478C145.619 314.633 141.8 321.119 141.398 323.469C140.997 325.82 142.625 327.949 145.421 327.707C148.869 327.409 153.602 322.398 153.602 322.398C150.453 325.486 154.516 327.665 160.579 323.199C163.943 320.722 166.943 317.886 164.709 312.616Z" fill="#DD7F11"/>
<path d="M336.705 251.161C336.66 251.161 336.613 251.155 336.567 251.141C336.302 251.065 336.148 250.787 336.225 250.523C337.557 245.883 339.012 243.048 340.925 241.472C340.632 240.476 340.665 239.332 341.078 238.213C341.48 237.124 342.257 236.042 343.44 235.208C342.861 234.582 342.645 233.763 342.85 232.826C343.077 231.785 343.834 230.656 344.986 229.67C344.533 229.149 344.422 228.582 344.419 228.162C344.394 225.18 349.926 220.637 356.181 219.783C356.455 219.732 356.707 219.936 356.744 220.211C356.781 220.484 356.59 220.736 356.316 220.774C350.378 221.585 345.399 225.883 345.419 228.154C345.422 228.522 345.558 228.818 345.781 229.057C348.032 227.49 351.355 226.482 355.063 227.194C358.132 227.781 359.38 228.429 359.236 229.361C358.964 231.114 352.427 231.476 348.046 230.955C347.053 230.837 346.326 230.602 345.796 230.309C344.707 231.2 344.009 232.2 343.827 233.039C343.664 233.788 343.906 234.31 344.322 234.675C346.178 233.718 348.791 233.318 352.238 234.08C356.775 235.081 356.944 235.634 357.046 235.963C357.118 236.198 357.06 236.44 356.885 236.625C355.929 237.638 348.979 237.157 345.487 236.302C345.032 236.191 344.631 236.039 344.284 235.851C343.127 236.58 342.383 237.564 342.016 238.559C341.722 239.357 341.655 240.152 341.79 240.862C341.97 240.755 342.154 240.657 342.342 240.567C344.411 239.585 346.913 239.75 349.996 241.068C352.041 241.944 353.027 242.718 353.099 243.507C353.121 243.74 353.075 244.187 352.529 244.549C351.004 245.562 345.659 245.408 342.881 243.929C342.226 243.579 341.707 243.064 341.343 242.443C339.708 243.936 338.39 246.609 337.187 250.798C337.122 251.019 336.922 251.161 336.705 251.161ZM342.13 241.83C342.406 242.342 342.817 242.764 343.349 243.047C345.606 244.248 350.045 244.523 351.711 243.851C352.051 243.713 352.102 243.598 352.102 243.598C352.102 243.595 352.047 243.035 349.601 241.989C346.798 240.79 344.563 240.622 342.77 241.471C342.552 241.575 342.338 241.694 342.13 241.83ZM345.464 235.262C345.55 235.287 345.637 235.311 345.722 235.332C349.253 236.196 354.02 236.344 355.655 236.075C355.149 235.861 354.115 235.519 352.02 235.057C349.247 234.446 347.079 234.637 345.464 235.262ZM346.726 229.64C347.177 229.808 347.687 229.907 348.163 229.963C353.146 230.553 357.545 229.856 358.203 229.235C358.033 229.081 357.362 228.653 354.874 228.177C351.591 227.552 348.723 228.375 346.726 229.64Z" fill="#14213D"/>
<path d="M206.527 353.248C207.186 353.037 206.965 352.401 206.23 352.401H192.691C166.91 349.671 148.897 353.33 160.248 354.193C171.598 355.056 159.449 354.875 151.16 358.01C142.871 361.146 212.814 361.936 219.175 358.01C225.041 354.389 197.392 356.176 206.527 353.248Z" fill="#14213D"/>
<path d="M303.468 357.238L185.666 353.333L180.777 239.111L319.888 242.222L303.468 357.238Z" fill="#DD7F11"/>
<path d="M222.451 355.053C222.193 355.053 221.974 354.856 221.953 354.594L212.51 239.873C212.487 239.598 212.692 239.356 212.968 239.334C213.251 239.318 213.485 239.516 213.507 239.791L222.95 354.512C222.972 354.787 222.768 355.029 222.492 355.051C222.478 355.052 222.464 355.053 222.451 355.053Z" fill="#14213D"/>
<path d="M303.469 357.238L335.131 352.418L345.104 246.208L319.889 242.222L303.469 357.238Z" fill="#DD7F11"/>
<path opacity="0.2" d="M303.469 357.238L335.131 352.418L345.104 246.208L319.889 242.222L303.469 357.238Z" fill="#14213D"/>
<path d="M195.734 331.316L192.83 263.455C192.527 256.371 198.274 250.506 205.362 250.665L293.421 252.634C300.775 252.798 306.332 259.352 305.292 266.634L295.529 335.025C294.644 341.223 289.234 345.761 282.977 345.553L207.586 343.054C201.174 342.841 196.009 337.725 195.734 331.316Z" fill="#14213D"/>
<path d="M205.246 271.488L218.87 271.922L218.758 275.435L210.229 275.164L210.146 277.779L218.058 278.031L217.951 281.386L210.039 281.134L209.936 284.377L218.712 284.656L218.594 288.382L204.723 287.941L205.246 271.488Z" fill="white"/>
<path d="M221.398 288.471L221.921 272.019L230.394 272.289C231.965 272.339 233.162 272.512 233.983 272.808C234.805 273.104 235.458 273.624 235.944 274.37C236.43 275.116 236.656 276.012 236.622 277.06C236.593 277.973 236.373 278.754 235.963 279.404C235.553 280.054 235 280.574 234.306 280.963C233.864 281.211 233.262 281.409 232.5 281.557C233.099 281.779 233.534 281.995 233.804 282.205C233.986 282.346 234.248 282.643 234.589 283.096C234.93 283.549 235.157 283.897 235.269 284.141L237.579 288.987L231.835 288.804L229.278 283.69C228.954 283.029 228.661 282.596 228.398 282.393C228.039 282.127 227.628 281.986 227.164 281.971L226.715 281.957L226.503 288.635L221.398 288.471ZM226.816 278.848L228.959 278.916C229.191 278.923 229.642 278.863 230.313 278.735C230.652 278.678 230.932 278.515 231.154 278.245C231.376 277.975 231.493 277.66 231.504 277.301C231.521 276.77 231.366 276.357 231.038 276.062C230.71 275.767 230.083 275.605 229.155 275.575L226.922 275.504L226.816 278.848Z" fill="white"/>
<path d="M239.275 289.04L239.798 272.588L248.271 272.858C249.842 272.908 251.039 273.081 251.86 273.377C252.682 273.673 253.335 274.193 253.821 274.939C254.307 275.685 254.533 276.582 254.499 277.629C254.47 278.542 254.25 279.323 253.84 279.973C253.429 280.623 252.877 281.143 252.183 281.532C251.741 281.78 251.139 281.978 250.377 282.126C250.976 282.348 251.411 282.564 251.681 282.774C251.864 282.915 252.125 283.212 252.467 283.665C252.808 284.118 253.035 284.466 253.147 284.71L255.457 289.556L249.712 289.373L247.155 284.259C246.832 283.598 246.538 283.165 246.275 282.962C245.916 282.696 245.505 282.555 245.041 282.54L244.592 282.526L244.38 289.203L239.275 289.04ZM244.693 279.417L246.836 279.485C247.068 279.492 247.519 279.432 248.19 279.303C248.529 279.246 248.809 279.083 249.031 278.813C249.253 278.543 249.37 278.228 249.381 277.869C249.398 277.338 249.243 276.925 248.915 276.63C248.587 276.335 247.959 276.173 247.032 276.143L244.799 276.072L244.693 279.417Z" fill="white"/>
<path d="M256.314 281.359C256.4 278.673 257.214 276.606 258.758 275.157C260.302 273.709 262.409 273.027 265.08 273.112C267.818 273.199 269.905 274.001 271.339 275.518C272.774 277.035 273.449 279.118 273.365 281.767C273.304 283.69 272.93 285.257 272.244 286.467C271.557 287.677 270.592 288.605 269.347 289.251C268.102 289.897 266.567 290.19 264.741 290.132C262.886 290.073 261.36 289.729 260.163 289.099C258.966 288.469 258.01 287.503 257.295 286.199C256.58 284.895 256.253 283.282 256.314 281.359ZM261.397 281.543C261.344 283.204 261.615 284.407 262.209 285.152C262.803 285.897 263.631 286.287 264.694 286.321C265.786 286.356 266.643 286.027 267.264 285.336C267.885 284.644 268.225 283.378 268.284 281.537C268.333 279.989 268.057 278.847 267.455 278.113C266.853 277.378 266.017 276.994 264.947 276.96C263.922 276.927 263.087 277.264 262.443 277.97C261.799 278.676 261.45 279.867 261.397 281.543Z" fill="white"/>
<path d="M275.906 290.205L276.429 273.753L284.902 274.023C286.473 274.073 287.67 274.246 288.491 274.542C289.313 274.838 289.966 275.358 290.452 276.104C290.938 276.85 291.164 277.747 291.13 278.794C291.101 279.707 290.881 280.488 290.471 281.138C290.061 281.788 289.508 282.308 288.814 282.697C288.371 282.945 287.769 283.143 287.008 283.291C287.607 283.513 288.042 283.729 288.312 283.939C288.494 284.08 288.756 284.377 289.097 284.83C289.438 285.283 289.665 285.631 289.777 285.875L292.087 290.721L286.343 290.538L283.786 285.424C283.462 284.763 283.169 284.33 282.906 284.127C282.547 283.861 282.136 283.72 281.672 283.705L281.223 283.691L281.011 290.368L275.906 290.205ZM281.324 280.582L283.467 280.65C283.699 280.657 284.15 280.597 284.821 280.468C285.16 280.411 285.44 280.248 285.662 279.978C285.884 279.708 286.001 279.393 286.012 279.034C286.029 278.503 285.874 278.09 285.546 277.795C285.218 277.5 284.591 277.338 283.663 277.308L281.43 277.237L281.324 280.582Z" fill="white"/>
<path d="M283.998 318.158C283.642 318.158 283.288 318.014 283.028 317.731L274.467 308.362L265.23 316.801C264.695 317.291 263.865 317.252 263.376 316.718L254.815 307.349L245.578 315.788C245.043 316.277 244.212 316.239 243.724 315.705L235.163 306.336L225.926 314.776C225.67 315.011 225.324 315.134 224.982 315.119C224.634 315.103 224.307 314.95 224.072 314.693L215.511 305.324L206.274 313.763C205.739 314.252 204.909 314.213 204.42 313.68C203.931 313.145 203.969 312.314 204.504 311.825L214.709 302.5C215.244 302.009 216.074 302.048 216.564 302.583L225.125 311.952L234.362 303.512C234.618 303.277 234.963 303.155 235.306 303.169C235.654 303.185 235.981 303.338 236.216 303.595L244.777 312.964L254.014 304.525C254.548 304.035 255.379 304.073 255.868 304.608L264.429 313.977L273.666 305.538C274.201 305.047 275.031 305.085 275.521 305.621L284.967 315.959C285.456 316.494 285.418 317.325 284.883 317.814C284.631 318.045 284.314 318.158 283.998 318.158Z" fill="white"/>
<path d="M125.749 359.667L119.491 356.682L113.908 329.515L116.938 326.178L125.749 359.667Z" fill="#DD7F11"/>
<path d="M125.748 359.667L134.053 354.815L126.933 332.432L116.938 326.178L125.748 359.667Z" fill="#DD7F11"/>
<path opacity="0.2" d="M125.748 359.667L134.053 354.815L126.933 332.432L116.938 326.178L125.748 359.667Z" fill="#14213D"/>
<path d="M261.948 364.605C261.712 364.605 261.481 364.601 261.257 364.595C258.497 364.519 256.32 362.22 256.396 359.459C256.472 356.7 258.752 354.53 261.531 354.599C269.234 354.851 285.537 350.119 294.85 341.078C295.426 340.519 296.127 340.107 296.896 339.877C312.684 335.139 318.56 344.711 318.803 345.121L310.196 350.211C310.196 350.211 310.229 350.28 310.311 350.394C310.215 350.262 307.98 347.355 300.859 349.154C289.172 359.822 271.232 364.605 261.948 364.605Z" fill="#14213D"/>
<path d="M261.394 371.252L243.181 370.104L241.744 336.528L266.221 337.443L261.394 371.252Z" fill="#DD7F11"/>
<path d="M261.395 371.252L265.652 367.015L268.291 346.079L266.222 337.443L261.395 371.252Z" fill="#DD7F11"/>
<path opacity="0.2" d="M261.395 371.252L265.652 367.015L268.291 346.079L266.222 337.443L261.395 371.252Z" fill="#14213D"/>
<path d="M366.909 358.537C366.277 358.537 365.639 358.338 365.096 357.926C354.701 350.026 340.651 336 335.259 322.469C335.18 322.272 335.123 322.066 335.088 321.856C332.459 306.223 329.947 273.315 329.841 271.921C329.716 270.27 330.953 268.828 332.605 268.703C334.252 268.582 335.698 269.815 335.823 271.468C335.849 271.804 338.386 305.034 340.951 320.541C346.329 333.697 360.908 347.207 368.726 353.148C370.045 354.151 370.302 356.033 369.299 357.352C368.71 358.129 367.815 358.537 366.909 358.537Z" fill="#14213D"/>
<path d="M380.778 360.053C378.459 360.053 375.829 359.001 372.964 356.928C371.622 355.956 371.321 354.081 372.293 352.739C373.265 351.397 375.14 351.096 376.482 352.067C378.959 353.86 380.312 354.053 380.779 354.053C382.436 354.053 383.779 355.396 383.779 357.053C383.778 358.71 382.435 360.053 380.778 360.053Z" fill="#14213D"/>
<path d="M373.803 356.842C377.013 347.307 390.173 349.191 394.705 350.607C399.237 352.023 403.32 353.805 405.775 355.41C408.23 357.015 408.269 359.695 404.996 361.226C400.96 363.114 390.835 361.439 390.835 361.439C396.076 363.734 390.825 367.411 381.63 363.799C378.636 362.623 372.67 360.336 373.803 356.842Z" fill="#DD7F11"/>
<path d="M341.862 276.036C340.671 284.138 333.962 290.112 328.504 289.31C323.046 288.508 322.819 281.272 324.01 273.17C325.201 265.068 327.359 259.169 332.817 259.971C338.275 260.774 343.053 267.935 341.862 276.036Z" fill="#14213D"/>
<path d="M209.874 243.694C210.326 243.694 210.693 243.327 210.693 242.875C210.693 242.423 210.326 242.056 209.874 242.056C209.421 242.056 209.055 242.423 209.055 242.875C209.055 243.327 209.421 243.694 209.874 243.694Z" fill="#14213D"/>
<path d="M218.207 248.778C218.207 249.23 217.84 249.597 217.388 249.597C216.936 249.597 216.568 249.23 216.568 248.778C216.568 248.325 216.935 247.959 217.388 247.959C217.841 247.959 218.207 248.325 218.207 248.778Z" fill="#14213D"/>
<path d="M219.123 345.683C219.123 346.136 218.756 346.502 218.304 346.502C217.851 346.502 217.484 346.135 217.484 345.683C217.484 345.23 217.851 344.864 218.304 344.864C218.756 344.863 219.123 345.23 219.123 345.683Z" fill="#14213D"/>
<path d="M226.639 351.586C226.639 352.039 226.272 352.405 225.819 352.405C225.367 352.405 225 352.038 225 351.586C225 351.133 225.367 350.767 225.819 350.767C226.272 350.766 226.639 351.133 226.639 351.586Z" fill="#14213D"/>
<path d="M82.5099 361.419C80.1299 361.419 76.9119 359.977 75.1769 357.47C75.0199 357.243 75.0759 356.932 75.3029 356.775C75.5299 356.617 75.8409 356.674 75.9989 356.902C77.8649 359.596 81.9779 361.033 83.8039 360.182C83.9959 360.092 84.1519 359.979 84.2709 359.843C82.6389 359.089 81.1469 357.613 80.7449 355.361C80.5179 354.094 80.3379 352.381 81.3839 352.144C82.8179 351.822 84.6939 355.29 85.4159 357.919C85.5499 358.405 85.5919 358.856 85.5459 359.262C86.1779 359.435 86.7999 359.48 87.3329 359.403C87.7659 359.34 88.3809 359.162 88.7079 358.658C87.4929 357.837 86.6759 356.389 86.4029 354.469C86.0149 351.735 86.3059 351.258 86.6089 351.025C86.8059 350.874 87.0559 350.845 87.2969 350.947C88.3659 351.402 89.6619 355.281 89.9099 357.476C89.9369 357.718 89.9369 357.95 89.9129 358.169C90.3219 358.332 90.7729 358.421 91.2619 358.431C92.1289 358.481 92.9859 358.205 93.6719 357.802C93.5299 357.713 93.3959 357.614 93.2699 357.507C92.2319 356.62 91.8139 355.203 91.9899 353.176C92.1259 351.609 92.4829 350.752 93.1129 350.483C93.3339 350.385 93.7839 350.294 94.3209 350.722C95.4009 351.585 96.4089 354.32 96.0469 356.279C95.9719 356.684 95.7969 357.073 95.5449 357.43C97.3799 357.746 99.9619 357.231 102.189 356.681C102.456 356.616 102.728 356.778 102.794 357.046C102.86 357.315 102.697 357.585 102.429 357.651C99.7189 358.321 96.8019 358.866 94.7409 358.268C93.8249 358.997 92.5349 359.439 91.2429 359.43C90.6539 359.418 90.1049 359.313 89.6039 359.122C89.2099 359.793 88.4769 360.247 87.4799 360.393C86.8159 360.492 86.0339 360.428 85.2419 360.202C85.0169 360.577 84.6769 360.878 84.2289 361.088C83.7489 361.31 83.1609 361.418 82.5099 361.419ZM81.6459 353.142C81.5879 353.295 81.4829 353.801 81.7309 355.186C82.0599 357.026 83.2509 358.249 84.5699 358.894C84.5639 358.681 84.5249 358.445 84.4539 358.186C83.6679 355.327 82.1749 353.357 81.6459 353.142ZM87.2169 352.27C87.2109 352.646 87.2449 353.278 87.3939 354.329C87.5969 355.757 88.1229 356.853 88.9129 357.552C88.6789 355.543 87.7879 353.218 87.2169 352.27ZM93.5079 351.401H93.5059C93.5039 351.402 93.1309 351.591 92.9849 353.261C92.8389 354.944 93.1449 356.084 93.9189 356.745C94.0949 356.895 94.2949 357.021 94.5179 357.124C94.8009 356.811 94.9939 356.461 95.0609 356.096C95.3289 354.647 94.6389 352.525 93.8649 351.666C93.6649 351.443 93.5359 351.401 93.5079 351.401Z" fill="#14213D"/>
<path d="M228.872 368.978L231.582 364.278L228.872 359.578H225.971L227.61 364.278L225.971 368.978H228.872Z" fill="#14213D"/>
<path d="M226.162 366.728C224.812 366.728 223.712 365.628 223.712 364.278C223.712 362.928 224.812 361.838 226.162 361.838L221.554 360.916L220.332 364.637L222.388 367.776L226.162 366.728Z" fill="#14213D"/>
<path d="M226.556 359.578H221.126L218.416 364.278L221.126 368.978H226.556L229.266 364.278L226.556 359.578ZM223.846 366.728C222.496 366.728 221.396 365.628 221.396 364.278C221.396 362.928 222.496 361.838 223.846 361.838C225.196 361.838 226.286 362.928 226.286 364.278C226.286 365.628 225.196 366.728 223.846 366.728Z" fill="#DD7F11"/>
<path d="M417.889 359.265L415.877 355.774L417.889 352.284H420.044L418.827 355.775L420.044 359.265H417.889Z" fill="#DD7F11"/>
<path d="M419.902 357.594C420.905 357.594 421.722 356.777 421.722 355.774C421.722 354.772 420.905 353.962 419.902 353.962L423.324 353.277L424.232 356.041L422.705 358.372L419.902 357.594Z" fill="#DD7F11"/>
<path d="M419.611 352.284H423.644L425.657 355.774L423.644 359.265H419.611L417.598 355.774L419.611 352.284ZM421.624 357.594C422.627 357.594 423.444 356.777 423.444 355.774C423.444 354.772 422.627 353.962 421.624 353.962C420.621 353.962 419.812 354.772 419.812 355.774C419.811 356.777 420.621 357.594 421.624 357.594Z" fill="#14213D"/>
<path d="M342.948 363.898H347.466C348.642 363.898 349.605 362.936 349.605 361.759C349.605 360.583 348.642 359.62 347.466 359.62H342.948C341.771 359.62 340.809 360.583 340.809 361.759C340.809 362.936 341.771 363.898 342.948 363.898Z" fill="#14213D"/>
<path d="M335.73 359.863C336.846 357.497 339.55 356.428 341.772 357.475C343.993 358.522 344.889 361.289 343.774 363.655C342.659 366.021 339.954 367.09 337.733 366.043C335.51 364.996 334.614 362.229 335.73 359.863Z" fill="#DD7F11"/>
<path d="M337.001 366.024L338.24 366.608L342.549 357.471L341.31 356.886L337.001 366.024Z" fill="#14213D"/>
</g>
<defs>
<clipPath id="clip0_412_3639">
<rect width="500" height="373" fill="white"/>
</clipPath>
</defs>
</svg>
